<mxfile host="Electron" agent="Mozilla/5.0 (Windows NT 10.0; Win64; x64) AppleWebKit/537.36 (KHTML, like Gecko) draw.io/26.2.2 Chrome/134.0.6998.178 Electron/35.1.2 Safari/537.36" version="26.2.2">
  <diagram name="第 1 页" id="PwAsHWEGYEGEWB1U5Qhv">
    <mxGraphModel dx="82" dy="1183" grid="1" gridSize="10" guides="1" tooltips="1" connect="1" arrows="1" fold="1" page="1" pageScale="1" pageWidth="827" pageHeight="1169" math="0" shadow="0">
      <root>
        <mxCell id="0" />
        <mxCell id="1" parent="0" />
        <mxCell id="yPmrLk9QHXn5OHYmQoqa-5" style="edgeStyle=orthogonalEdgeStyle;rounded=0;orthogonalLoop=1;jettySize=auto;html=1;exitX=0.5;exitY=1;exitDx=0;exitDy=0;entryX=0.5;entryY=0;entryDx=0;entryDy=0;" edge="1" parent="1" source="yPmrLk9QHXn5OHYmQoqa-6" target="yPmrLk9QHXn5OHYmQoqa-10">
          <mxGeometry relative="1" as="geometry">
            <mxPoint x="1754" y="80" as="targetPoint" />
          </mxGeometry>
        </mxCell>
        <mxCell id="yPmrLk9QHXn5OHYmQoqa-6" value="Decl" style="ellipse;whiteSpace=wrap;html=1;aspect=fixed;" vertex="1" parent="1">
          <mxGeometry x="1734" width="40" height="40" as="geometry" />
        </mxCell>
        <mxCell id="yPmrLk9QHXn5OHYmQoqa-7" style="edgeStyle=orthogonalEdgeStyle;rounded=0;orthogonalLoop=1;jettySize=auto;html=1;exitX=0.5;exitY=1;exitDx=0;exitDy=0;entryX=0.5;entryY=0;entryDx=0;entryDy=0;" edge="1" parent="1" source="yPmrLk9QHXn5OHYmQoqa-10">
          <mxGeometry relative="1" as="geometry">
            <mxPoint x="1754" y="160" as="targetPoint" />
          </mxGeometry>
        </mxCell>
        <mxCell id="yPmrLk9QHXn5OHYmQoqa-8" style="rounded=0;orthogonalLoop=1;jettySize=auto;html=1;exitX=0;exitY=1;exitDx=0;exitDy=0;entryX=0.5;entryY=0;entryDx=0;entryDy=0;" edge="1" parent="1" source="yPmrLk9QHXn5OHYmQoqa-10" target="yPmrLk9QHXn5OHYmQoqa-12">
          <mxGeometry relative="1" as="geometry" />
        </mxCell>
        <mxCell id="yPmrLk9QHXn5OHYmQoqa-9" style="rounded=0;orthogonalLoop=1;jettySize=auto;html=1;exitX=1;exitY=1;exitDx=0;exitDy=0;entryX=0.5;entryY=0;entryDx=0;entryDy=0;" edge="1" parent="1" source="yPmrLk9QHXn5OHYmQoqa-10" target="yPmrLk9QHXn5OHYmQoqa-17">
          <mxGeometry relative="1" as="geometry" />
        </mxCell>
        <mxCell id="yPmrLk9QHXn5OHYmQoqa-10" value="Var&lt;div&gt;Decl&lt;/div&gt;" style="ellipse;whiteSpace=wrap;html=1;" vertex="1" parent="1">
          <mxGeometry x="1734" y="80" width="40" height="40" as="geometry" />
        </mxCell>
        <mxCell id="yPmrLk9QHXn5OHYmQoqa-11" style="rounded=0;orthogonalLoop=1;jettySize=auto;html=1;exitX=0.5;exitY=1;exitDx=0;exitDy=0;entryX=0.5;entryY=0;entryDx=0;entryDy=0;" edge="1" parent="1" source="yPmrLk9QHXn5OHYmQoqa-12">
          <mxGeometry relative="1" as="geometry">
            <mxPoint x="1674" y="239.99999999999977" as="targetPoint" />
          </mxGeometry>
        </mxCell>
        <mxCell id="yPmrLk9QHXn5OHYmQoqa-12" value="BType" style="ellipse;whiteSpace=wrap;html=1;" vertex="1" parent="1">
          <mxGeometry x="1694" y="160" width="40" height="40" as="geometry" />
        </mxCell>
        <mxCell id="yPmrLk9QHXn5OHYmQoqa-13" style="rounded=0;orthogonalLoop=1;jettySize=auto;html=1;exitX=0;exitY=1;exitDx=0;exitDy=0;entryX=0.5;entryY=0;entryDx=0;entryDy=0;" edge="1" parent="1" source="yPmrLk9QHXn5OHYmQoqa-16" target="yPmrLk9QHXn5OHYmQoqa-19">
          <mxGeometry relative="1" as="geometry" />
        </mxCell>
        <mxCell id="yPmrLk9QHXn5OHYmQoqa-14" style="edgeStyle=orthogonalEdgeStyle;rounded=0;orthogonalLoop=1;jettySize=auto;html=1;exitX=0.5;exitY=1;exitDx=0;exitDy=0;entryX=0.5;entryY=0;entryDx=0;entryDy=0;" edge="1" parent="1" source="yPmrLk9QHXn5OHYmQoqa-16" target="yPmrLk9QHXn5OHYmQoqa-20">
          <mxGeometry relative="1" as="geometry" />
        </mxCell>
        <mxCell id="yPmrLk9QHXn5OHYmQoqa-15" style="rounded=0;orthogonalLoop=1;jettySize=auto;html=1;exitX=1;exitY=1;exitDx=0;exitDy=0;" edge="1" parent="1" source="yPmrLk9QHXn5OHYmQoqa-16" target="yPmrLk9QHXn5OHYmQoqa-22">
          <mxGeometry relative="1" as="geometry" />
        </mxCell>
        <mxCell id="yPmrLk9QHXn5OHYmQoqa-16" value="Var&lt;br&gt;Def" style="ellipse;whiteSpace=wrap;html=1;" vertex="1" parent="1">
          <mxGeometry x="1734" y="160" width="40" height="40" as="geometry" />
        </mxCell>
        <mxCell id="yPmrLk9QHXn5OHYmQoqa-17" value="Term&lt;div&gt;;&lt;/div&gt;" style="ellipse;whiteSpace=wrap;html=1;" vertex="1" parent="1">
          <mxGeometry x="1774" y="160" width="40" height="40" as="geometry" />
        </mxCell>
        <mxCell id="yPmrLk9QHXn5OHYmQoqa-18" value="Term&lt;div&gt;float&lt;/div&gt;" style="ellipse;whiteSpace=wrap;html=1;" vertex="1" parent="1">
          <mxGeometry x="1654" y="240" width="40" height="40" as="geometry" />
        </mxCell>
        <mxCell id="yPmrLk9QHXn5OHYmQoqa-19" value="Term&lt;div&gt;a&lt;/div&gt;" style="ellipse;whiteSpace=wrap;html=1;" vertex="1" parent="1">
          <mxGeometry x="1694" y="240" width="40" height="40" as="geometry" />
        </mxCell>
        <mxCell id="yPmrLk9QHXn5OHYmQoqa-20" value="Term&lt;div&gt;=&lt;/div&gt;" style="ellipse;whiteSpace=wrap;html=1;" vertex="1" parent="1">
          <mxGeometry x="1734" y="240" width="40" height="40" as="geometry" />
        </mxCell>
        <mxCell id="yPmrLk9QHXn5OHYmQoqa-21" style="edgeStyle=orthogonalEdgeStyle;rounded=0;orthogonalLoop=1;jettySize=auto;html=1;exitX=0.5;exitY=1;exitDx=0;exitDy=0;entryX=0.5;entryY=0;entryDx=0;entryDy=0;" edge="1" parent="1" source="yPmrLk9QHXn5OHYmQoqa-22" target="yPmrLk9QHXn5OHYmQoqa-23">
          <mxGeometry relative="1" as="geometry" />
        </mxCell>
        <mxCell id="yPmrLk9QHXn5OHYmQoqa-22" value="Init&lt;div&gt;Val&lt;/div&gt;" style="ellipse;whiteSpace=wrap;html=1;" vertex="1" parent="1">
          <mxGeometry x="1774" y="240" width="40" height="40" as="geometry" />
        </mxCell>
        <mxCell id="yPmrLk9QHXn5OHYmQoqa-23" value="&lt;span style=&quot;background-color: transparent; color: light-dark(rgb(0, 0, 0), rgb(255, 255, 255));&quot;&gt;.2&lt;/span&gt;" style="rounded=1;whiteSpace=wrap;html=1;align=left;" vertex="1" parent="1">
          <mxGeometry x="1774" y="310" width="40" height="40" as="geometry" />
        </mxCell>
        <mxCell id="yPmrLk9QHXn5OHYmQoqa-24" style="edgeStyle=orthogonalEdgeStyle;rounded=0;orthogonalLoop=1;jettySize=auto;html=1;exitX=0.5;exitY=1;exitDx=0;exitDy=0;entryX=0.5;entryY=0;entryDx=0;entryDy=0;" edge="1" parent="1" source="yPmrLk9QHXn5OHYmQoqa-25" target="yPmrLk9QHXn5OHYmQoqa-29">
          <mxGeometry relative="1" as="geometry">
            <mxPoint x="1940" y="80" as="targetPoint" />
          </mxGeometry>
        </mxCell>
        <mxCell id="yPmrLk9QHXn5OHYmQoqa-25" value="Decl" style="ellipse;whiteSpace=wrap;html=1;aspect=fixed;" vertex="1" parent="1">
          <mxGeometry x="1920" width="40" height="40" as="geometry" />
        </mxCell>
        <mxCell id="yPmrLk9QHXn5OHYmQoqa-26" style="edgeStyle=orthogonalEdgeStyle;rounded=0;orthogonalLoop=1;jettySize=auto;html=1;exitX=0.5;exitY=1;exitDx=0;exitDy=0;entryX=0.5;entryY=0;entryDx=0;entryDy=0;" edge="1" parent="1" source="yPmrLk9QHXn5OHYmQoqa-29">
          <mxGeometry relative="1" as="geometry">
            <mxPoint x="1940" y="160" as="targetPoint" />
          </mxGeometry>
        </mxCell>
        <mxCell id="yPmrLk9QHXn5OHYmQoqa-27" style="rounded=0;orthogonalLoop=1;jettySize=auto;html=1;exitX=0;exitY=1;exitDx=0;exitDy=0;entryX=0.5;entryY=0;entryDx=0;entryDy=0;" edge="1" parent="1" source="yPmrLk9QHXn5OHYmQoqa-29" target="yPmrLk9QHXn5OHYmQoqa-31">
          <mxGeometry relative="1" as="geometry" />
        </mxCell>
        <mxCell id="yPmrLk9QHXn5OHYmQoqa-28" style="rounded=0;orthogonalLoop=1;jettySize=auto;html=1;exitX=1;exitY=1;exitDx=0;exitDy=0;entryX=0.5;entryY=0;entryDx=0;entryDy=0;" edge="1" parent="1" source="yPmrLk9QHXn5OHYmQoqa-29" target="yPmrLk9QHXn5OHYmQoqa-36">
          <mxGeometry relative="1" as="geometry" />
        </mxCell>
        <mxCell id="yPmrLk9QHXn5OHYmQoqa-29" value="Var&lt;div&gt;Decl&lt;/div&gt;" style="ellipse;whiteSpace=wrap;html=1;" vertex="1" parent="1">
          <mxGeometry x="1920" y="80" width="40" height="40" as="geometry" />
        </mxCell>
        <mxCell id="yPmrLk9QHXn5OHYmQoqa-30" style="rounded=0;orthogonalLoop=1;jettySize=auto;html=1;exitX=0.5;exitY=1;exitDx=0;exitDy=0;entryX=0.5;entryY=0;entryDx=0;entryDy=0;" edge="1" parent="1" source="yPmrLk9QHXn5OHYmQoqa-31">
          <mxGeometry relative="1" as="geometry">
            <mxPoint x="1860" y="239.99999999999977" as="targetPoint" />
          </mxGeometry>
        </mxCell>
        <mxCell id="yPmrLk9QHXn5OHYmQoqa-31" value="BType" style="ellipse;whiteSpace=wrap;html=1;fillColor=#f8cecc;strokeColor=#b85450;" vertex="1" parent="1">
          <mxGeometry x="1880" y="160" width="40" height="40" as="geometry" />
        </mxCell>
        <mxCell id="yPmrLk9QHXn5OHYmQoqa-32" style="rounded=0;orthogonalLoop=1;jettySize=auto;html=1;exitX=0;exitY=1;exitDx=0;exitDy=0;entryX=0.5;entryY=0;entryDx=0;entryDy=0;" edge="1" parent="1" source="yPmrLk9QHXn5OHYmQoqa-35" target="yPmrLk9QHXn5OHYmQoqa-38">
          <mxGeometry relative="1" as="geometry" />
        </mxCell>
        <mxCell id="yPmrLk9QHXn5OHYmQoqa-33" style="edgeStyle=orthogonalEdgeStyle;rounded=0;orthogonalLoop=1;jettySize=auto;html=1;exitX=0.5;exitY=1;exitDx=0;exitDy=0;entryX=0.5;entryY=0;entryDx=0;entryDy=0;" edge="1" parent="1" source="yPmrLk9QHXn5OHYmQoqa-35" target="yPmrLk9QHXn5OHYmQoqa-39">
          <mxGeometry relative="1" as="geometry" />
        </mxCell>
        <mxCell id="yPmrLk9QHXn5OHYmQoqa-34" style="rounded=0;orthogonalLoop=1;jettySize=auto;html=1;exitX=1;exitY=1;exitDx=0;exitDy=0;" edge="1" parent="1" source="yPmrLk9QHXn5OHYmQoqa-35" target="yPmrLk9QHXn5OHYmQoqa-41">
          <mxGeometry relative="1" as="geometry" />
        </mxCell>
        <mxCell id="yPmrLk9QHXn5OHYmQoqa-35" value="Var&lt;br&gt;Def" style="ellipse;whiteSpace=wrap;html=1;" vertex="1" parent="1">
          <mxGeometry x="1920" y="160" width="40" height="40" as="geometry" />
        </mxCell>
        <mxCell id="yPmrLk9QHXn5OHYmQoqa-36" value="Term&lt;div&gt;;&lt;/div&gt;" style="ellipse;whiteSpace=wrap;html=1;" vertex="1" parent="1">
          <mxGeometry x="1960" y="160" width="40" height="40" as="geometry" />
        </mxCell>
        <mxCell id="yPmrLk9QHXn5OHYmQoqa-37" value="Term&lt;div&gt;float&lt;/div&gt;" style="ellipse;whiteSpace=wrap;html=1;fillColor=#f8cecc;strokeColor=#b85450;" vertex="1" parent="1">
          <mxGeometry x="1840" y="240" width="40" height="40" as="geometry" />
        </mxCell>
        <mxCell id="yPmrLk9QHXn5OHYmQoqa-38" value="Term&lt;div&gt;a&lt;/div&gt;" style="ellipse;whiteSpace=wrap;html=1;" vertex="1" parent="1">
          <mxGeometry x="1880" y="240" width="40" height="40" as="geometry" />
        </mxCell>
        <mxCell id="yPmrLk9QHXn5OHYmQoqa-39" value="Term&lt;div&gt;=&lt;/div&gt;" style="ellipse;whiteSpace=wrap;html=1;" vertex="1" parent="1">
          <mxGeometry x="1920" y="240" width="40" height="40" as="geometry" />
        </mxCell>
        <mxCell id="yPmrLk9QHXn5OHYmQoqa-40" style="edgeStyle=orthogonalEdgeStyle;rounded=0;orthogonalLoop=1;jettySize=auto;html=1;exitX=0.5;exitY=1;exitDx=0;exitDy=0;entryX=0.5;entryY=0;entryDx=0;entryDy=0;" edge="1" parent="1" source="yPmrLk9QHXn5OHYmQoqa-41" target="yPmrLk9QHXn5OHYmQoqa-42">
          <mxGeometry relative="1" as="geometry" />
        </mxCell>
        <mxCell id="yPmrLk9QHXn5OHYmQoqa-41" value="Init&lt;div&gt;Val&lt;/div&gt;" style="ellipse;whiteSpace=wrap;html=1;" vertex="1" parent="1">
          <mxGeometry x="1960" y="240" width="40" height="40" as="geometry" />
        </mxCell>
        <mxCell id="yPmrLk9QHXn5OHYmQoqa-42" value="&lt;span style=&quot;background-color: transparent; color: light-dark(rgb(0, 0, 0), rgb(255, 255, 255));&quot;&gt;.2&lt;/span&gt;" style="rounded=1;whiteSpace=wrap;html=1;align=left;" vertex="1" parent="1">
          <mxGeometry x="1960" y="310" width="40" height="40" as="geometry" />
        </mxCell>
        <mxCell id="yPmrLk9QHXn5OHYmQoqa-186" style="edgeStyle=orthogonalEdgeStyle;rounded=0;orthogonalLoop=1;jettySize=auto;html=1;exitX=0.5;exitY=1;exitDx=0;exitDy=0;entryX=0.5;entryY=1;entryDx=0;entryDy=0;" edge="1" parent="1" source="yPmrLk9QHXn5OHYmQoqa-43" target="yPmrLk9QHXn5OHYmQoqa-184">
          <mxGeometry relative="1" as="geometry">
            <Array as="points">
              <mxPoint x="1920" y="520" />
              <mxPoint x="2920" y="520" />
            </Array>
          </mxGeometry>
        </mxCell>
        <mxCell id="yPmrLk9QHXn5OHYmQoqa-43" value="下一个指令是定义一个&lt;br&gt;&lt;font style=&quot;color: rgb(255, 51, 51);&quot;&gt;float类型的变量/&lt;/font&gt;&lt;div&gt;&lt;font style=&quot;color: rgb(255, 51, 51);&quot;&gt;返回值为float的函数&lt;/font&gt;&lt;/div&gt;" style="rounded=1;whiteSpace=wrap;html=1;" vertex="1" parent="1">
          <mxGeometry x="1840" y="360" width="160" height="80" as="geometry" />
        </mxCell>
        <mxCell id="yPmrLk9QHXn5OHYmQoqa-63" style="edgeStyle=orthogonalEdgeStyle;rounded=0;orthogonalLoop=1;jettySize=auto;html=1;exitX=0.5;exitY=1;exitDx=0;exitDy=0;entryX=0.5;entryY=0;entryDx=0;entryDy=0;" edge="1" parent="1" source="yPmrLk9QHXn5OHYmQoqa-64" target="yPmrLk9QHXn5OHYmQoqa-68">
          <mxGeometry relative="1" as="geometry">
            <mxPoint x="2140" y="80" as="targetPoint" />
          </mxGeometry>
        </mxCell>
        <mxCell id="yPmrLk9QHXn5OHYmQoqa-64" value="Decl" style="ellipse;whiteSpace=wrap;html=1;aspect=fixed;" vertex="1" parent="1">
          <mxGeometry x="2120" width="40" height="40" as="geometry" />
        </mxCell>
        <mxCell id="yPmrLk9QHXn5OHYmQoqa-65" style="edgeStyle=orthogonalEdgeStyle;rounded=0;orthogonalLoop=1;jettySize=auto;html=1;exitX=0.5;exitY=1;exitDx=0;exitDy=0;entryX=0.5;entryY=0;entryDx=0;entryDy=0;" edge="1" parent="1" source="yPmrLk9QHXn5OHYmQoqa-68">
          <mxGeometry relative="1" as="geometry">
            <mxPoint x="2140" y="160" as="targetPoint" />
          </mxGeometry>
        </mxCell>
        <mxCell id="yPmrLk9QHXn5OHYmQoqa-66" style="rounded=0;orthogonalLoop=1;jettySize=auto;html=1;exitX=0;exitY=1;exitDx=0;exitDy=0;entryX=0.5;entryY=0;entryDx=0;entryDy=0;" edge="1" parent="1" source="yPmrLk9QHXn5OHYmQoqa-68" target="yPmrLk9QHXn5OHYmQoqa-70">
          <mxGeometry relative="1" as="geometry" />
        </mxCell>
        <mxCell id="yPmrLk9QHXn5OHYmQoqa-67" style="rounded=0;orthogonalLoop=1;jettySize=auto;html=1;exitX=1;exitY=1;exitDx=0;exitDy=0;entryX=0.5;entryY=0;entryDx=0;entryDy=0;" edge="1" parent="1" source="yPmrLk9QHXn5OHYmQoqa-68" target="yPmrLk9QHXn5OHYmQoqa-75">
          <mxGeometry relative="1" as="geometry" />
        </mxCell>
        <mxCell id="yPmrLk9QHXn5OHYmQoqa-68" value="Var&lt;div&gt;Decl&lt;/div&gt;" style="ellipse;whiteSpace=wrap;html=1;" vertex="1" parent="1">
          <mxGeometry x="2120" y="80" width="40" height="40" as="geometry" />
        </mxCell>
        <mxCell id="yPmrLk9QHXn5OHYmQoqa-69" style="rounded=0;orthogonalLoop=1;jettySize=auto;html=1;exitX=0.5;exitY=1;exitDx=0;exitDy=0;entryX=0.5;entryY=0;entryDx=0;entryDy=0;" edge="1" parent="1" source="yPmrLk9QHXn5OHYmQoqa-70">
          <mxGeometry relative="1" as="geometry">
            <mxPoint x="2060" y="239.99999999999977" as="targetPoint" />
          </mxGeometry>
        </mxCell>
        <mxCell id="yPmrLk9QHXn5OHYmQoqa-70" value="BType" style="ellipse;whiteSpace=wrap;html=1;" vertex="1" parent="1">
          <mxGeometry x="2080" y="160" width="40" height="40" as="geometry" />
        </mxCell>
        <mxCell id="yPmrLk9QHXn5OHYmQoqa-71" style="rounded=0;orthogonalLoop=1;jettySize=auto;html=1;exitX=0;exitY=1;exitDx=0;exitDy=0;entryX=0.5;entryY=0;entryDx=0;entryDy=0;" edge="1" parent="1" source="yPmrLk9QHXn5OHYmQoqa-74" target="yPmrLk9QHXn5OHYmQoqa-77">
          <mxGeometry relative="1" as="geometry" />
        </mxCell>
        <mxCell id="yPmrLk9QHXn5OHYmQoqa-72" style="edgeStyle=orthogonalEdgeStyle;rounded=0;orthogonalLoop=1;jettySize=auto;html=1;exitX=0.5;exitY=1;exitDx=0;exitDy=0;entryX=0.5;entryY=0;entryDx=0;entryDy=0;" edge="1" parent="1" source="yPmrLk9QHXn5OHYmQoqa-74" target="yPmrLk9QHXn5OHYmQoqa-78">
          <mxGeometry relative="1" as="geometry" />
        </mxCell>
        <mxCell id="yPmrLk9QHXn5OHYmQoqa-73" style="rounded=0;orthogonalLoop=1;jettySize=auto;html=1;exitX=1;exitY=1;exitDx=0;exitDy=0;" edge="1" parent="1" source="yPmrLk9QHXn5OHYmQoqa-74" target="yPmrLk9QHXn5OHYmQoqa-80">
          <mxGeometry relative="1" as="geometry" />
        </mxCell>
        <mxCell id="yPmrLk9QHXn5OHYmQoqa-74" value="Var&lt;br&gt;Def" style="ellipse;whiteSpace=wrap;html=1;" vertex="1" parent="1">
          <mxGeometry x="2120" y="160" width="40" height="40" as="geometry" />
        </mxCell>
        <mxCell id="yPmrLk9QHXn5OHYmQoqa-75" value="Term&lt;div&gt;;&lt;/div&gt;" style="ellipse;whiteSpace=wrap;html=1;" vertex="1" parent="1">
          <mxGeometry x="2160" y="160" width="40" height="40" as="geometry" />
        </mxCell>
        <mxCell id="yPmrLk9QHXn5OHYmQoqa-76" value="Term&lt;div&gt;float&lt;/div&gt;" style="ellipse;whiteSpace=wrap;html=1;" vertex="1" parent="1">
          <mxGeometry x="2040" y="240" width="40" height="40" as="geometry" />
        </mxCell>
        <mxCell id="yPmrLk9QHXn5OHYmQoqa-77" value="Term&lt;div&gt;a&lt;/div&gt;" style="ellipse;whiteSpace=wrap;html=1;fillColor=#f8cecc;strokeColor=#b85450;" vertex="1" parent="1">
          <mxGeometry x="2080" y="240" width="40" height="40" as="geometry" />
        </mxCell>
        <mxCell id="yPmrLk9QHXn5OHYmQoqa-78" value="Term&lt;div&gt;=&lt;/div&gt;" style="ellipse;whiteSpace=wrap;html=1;" vertex="1" parent="1">
          <mxGeometry x="2120" y="240" width="40" height="40" as="geometry" />
        </mxCell>
        <mxCell id="yPmrLk9QHXn5OHYmQoqa-79" style="edgeStyle=orthogonalEdgeStyle;rounded=0;orthogonalLoop=1;jettySize=auto;html=1;exitX=0.5;exitY=1;exitDx=0;exitDy=0;entryX=0.5;entryY=0;entryDx=0;entryDy=0;" edge="1" parent="1" source="yPmrLk9QHXn5OHYmQoqa-80" target="yPmrLk9QHXn5OHYmQoqa-81">
          <mxGeometry relative="1" as="geometry" />
        </mxCell>
        <mxCell id="yPmrLk9QHXn5OHYmQoqa-80" value="Init&lt;div&gt;Val&lt;/div&gt;" style="ellipse;whiteSpace=wrap;html=1;" vertex="1" parent="1">
          <mxGeometry x="2160" y="240" width="40" height="40" as="geometry" />
        </mxCell>
        <mxCell id="yPmrLk9QHXn5OHYmQoqa-81" value="&lt;span style=&quot;background-color: transparent; color: light-dark(rgb(0, 0, 0), rgb(255, 255, 255));&quot;&gt;.2&lt;/span&gt;" style="rounded=1;whiteSpace=wrap;html=1;align=left;" vertex="1" parent="1">
          <mxGeometry x="2160" y="310" width="40" height="40" as="geometry" />
        </mxCell>
        <mxCell id="yPmrLk9QHXn5OHYmQoqa-143" style="edgeStyle=orthogonalEdgeStyle;rounded=0;orthogonalLoop=1;jettySize=auto;html=1;exitX=0.25;exitY=1;exitDx=0;exitDy=0;entryX=0.5;entryY=1;entryDx=0;entryDy=0;" edge="1" parent="1" source="yPmrLk9QHXn5OHYmQoqa-82" target="yPmrLk9QHXn5OHYmQoqa-142">
          <mxGeometry relative="1" as="geometry" />
        </mxCell>
        <mxCell id="yPmrLk9QHXn5OHYmQoqa-82" value="下一个指令的一个操作数是&lt;br&gt;&lt;font style=&quot;color: rgb(255, 51, 51);&quot;&gt;一个名为 a 的变量或函数&lt;/font&gt;" style="rounded=1;whiteSpace=wrap;html=1;" vertex="1" parent="1">
          <mxGeometry x="2040" y="360" width="160" height="80" as="geometry" />
        </mxCell>
        <mxCell id="yPmrLk9QHXn5OHYmQoqa-83" style="edgeStyle=orthogonalEdgeStyle;rounded=0;orthogonalLoop=1;jettySize=auto;html=1;exitX=0.5;exitY=1;exitDx=0;exitDy=0;entryX=0.5;entryY=0;entryDx=0;entryDy=0;" edge="1" parent="1" source="yPmrLk9QHXn5OHYmQoqa-84" target="yPmrLk9QHXn5OHYmQoqa-88">
          <mxGeometry relative="1" as="geometry">
            <mxPoint x="2340" y="80" as="targetPoint" />
          </mxGeometry>
        </mxCell>
        <mxCell id="yPmrLk9QHXn5OHYmQoqa-84" value="Decl" style="ellipse;whiteSpace=wrap;html=1;aspect=fixed;" vertex="1" parent="1">
          <mxGeometry x="2320" width="40" height="40" as="geometry" />
        </mxCell>
        <mxCell id="yPmrLk9QHXn5OHYmQoqa-85" style="edgeStyle=orthogonalEdgeStyle;rounded=0;orthogonalLoop=1;jettySize=auto;html=1;exitX=0.5;exitY=1;exitDx=0;exitDy=0;entryX=0.5;entryY=0;entryDx=0;entryDy=0;" edge="1" parent="1" source="yPmrLk9QHXn5OHYmQoqa-88">
          <mxGeometry relative="1" as="geometry">
            <mxPoint x="2340" y="160" as="targetPoint" />
          </mxGeometry>
        </mxCell>
        <mxCell id="yPmrLk9QHXn5OHYmQoqa-86" style="rounded=0;orthogonalLoop=1;jettySize=auto;html=1;exitX=0;exitY=1;exitDx=0;exitDy=0;entryX=0.5;entryY=0;entryDx=0;entryDy=0;" edge="1" parent="1" source="yPmrLk9QHXn5OHYmQoqa-88" target="yPmrLk9QHXn5OHYmQoqa-90">
          <mxGeometry relative="1" as="geometry" />
        </mxCell>
        <mxCell id="yPmrLk9QHXn5OHYmQoqa-87" style="rounded=0;orthogonalLoop=1;jettySize=auto;html=1;exitX=1;exitY=1;exitDx=0;exitDy=0;entryX=0.5;entryY=0;entryDx=0;entryDy=0;" edge="1" parent="1" source="yPmrLk9QHXn5OHYmQoqa-88" target="yPmrLk9QHXn5OHYmQoqa-95">
          <mxGeometry relative="1" as="geometry" />
        </mxCell>
        <mxCell id="yPmrLk9QHXn5OHYmQoqa-88" value="Var&lt;div&gt;Decl&lt;/div&gt;" style="ellipse;whiteSpace=wrap;html=1;" vertex="1" parent="1">
          <mxGeometry x="2320" y="80" width="40" height="40" as="geometry" />
        </mxCell>
        <mxCell id="yPmrLk9QHXn5OHYmQoqa-89" style="rounded=0;orthogonalLoop=1;jettySize=auto;html=1;exitX=0.5;exitY=1;exitDx=0;exitDy=0;entryX=0.5;entryY=0;entryDx=0;entryDy=0;" edge="1" parent="1" source="yPmrLk9QHXn5OHYmQoqa-90">
          <mxGeometry relative="1" as="geometry">
            <mxPoint x="2260" y="239.99999999999977" as="targetPoint" />
          </mxGeometry>
        </mxCell>
        <mxCell id="yPmrLk9QHXn5OHYmQoqa-90" value="BType" style="ellipse;whiteSpace=wrap;html=1;" vertex="1" parent="1">
          <mxGeometry x="2280" y="160" width="40" height="40" as="geometry" />
        </mxCell>
        <mxCell id="yPmrLk9QHXn5OHYmQoqa-91" style="rounded=0;orthogonalLoop=1;jettySize=auto;html=1;exitX=0;exitY=1;exitDx=0;exitDy=0;entryX=0.5;entryY=0;entryDx=0;entryDy=0;" edge="1" parent="1" source="yPmrLk9QHXn5OHYmQoqa-94" target="yPmrLk9QHXn5OHYmQoqa-97">
          <mxGeometry relative="1" as="geometry" />
        </mxCell>
        <mxCell id="yPmrLk9QHXn5OHYmQoqa-92" style="edgeStyle=orthogonalEdgeStyle;rounded=0;orthogonalLoop=1;jettySize=auto;html=1;exitX=0.5;exitY=1;exitDx=0;exitDy=0;entryX=0.5;entryY=0;entryDx=0;entryDy=0;" edge="1" parent="1" source="yPmrLk9QHXn5OHYmQoqa-94" target="yPmrLk9QHXn5OHYmQoqa-98">
          <mxGeometry relative="1" as="geometry" />
        </mxCell>
        <mxCell id="yPmrLk9QHXn5OHYmQoqa-93" style="rounded=0;orthogonalLoop=1;jettySize=auto;html=1;exitX=1;exitY=1;exitDx=0;exitDy=0;" edge="1" parent="1" source="yPmrLk9QHXn5OHYmQoqa-94" target="yPmrLk9QHXn5OHYmQoqa-100">
          <mxGeometry relative="1" as="geometry" />
        </mxCell>
        <mxCell id="yPmrLk9QHXn5OHYmQoqa-94" value="Var&lt;br&gt;Def" style="ellipse;whiteSpace=wrap;html=1;" vertex="1" parent="1">
          <mxGeometry x="2320" y="160" width="40" height="40" as="geometry" />
        </mxCell>
        <mxCell id="yPmrLk9QHXn5OHYmQoqa-95" value="Term&lt;div&gt;;&lt;/div&gt;" style="ellipse;whiteSpace=wrap;html=1;" vertex="1" parent="1">
          <mxGeometry x="2360" y="160" width="40" height="40" as="geometry" />
        </mxCell>
        <mxCell id="yPmrLk9QHXn5OHYmQoqa-96" value="Term&lt;div&gt;float&lt;/div&gt;" style="ellipse;whiteSpace=wrap;html=1;" vertex="1" parent="1">
          <mxGeometry x="2240" y="240" width="40" height="40" as="geometry" />
        </mxCell>
        <mxCell id="yPmrLk9QHXn5OHYmQoqa-97" value="Term&lt;div&gt;a&lt;/div&gt;" style="ellipse;whiteSpace=wrap;html=1;" vertex="1" parent="1">
          <mxGeometry x="2280" y="240" width="40" height="40" as="geometry" />
        </mxCell>
        <mxCell id="yPmrLk9QHXn5OHYmQoqa-98" value="Term&lt;div&gt;=&lt;/div&gt;" style="ellipse;whiteSpace=wrap;html=1;fillColor=#f8cecc;strokeColor=#b85450;" vertex="1" parent="1">
          <mxGeometry x="2320" y="240" width="40" height="40" as="geometry" />
        </mxCell>
        <mxCell id="yPmrLk9QHXn5OHYmQoqa-99" style="edgeStyle=orthogonalEdgeStyle;rounded=0;orthogonalLoop=1;jettySize=auto;html=1;exitX=0.5;exitY=1;exitDx=0;exitDy=0;entryX=0.5;entryY=0;entryDx=0;entryDy=0;" edge="1" parent="1" source="yPmrLk9QHXn5OHYmQoqa-100" target="yPmrLk9QHXn5OHYmQoqa-101">
          <mxGeometry relative="1" as="geometry" />
        </mxCell>
        <mxCell id="yPmrLk9QHXn5OHYmQoqa-100" value="Init&lt;div&gt;Val&lt;/div&gt;" style="ellipse;whiteSpace=wrap;html=1;" vertex="1" parent="1">
          <mxGeometry x="2360" y="240" width="40" height="40" as="geometry" />
        </mxCell>
        <mxCell id="yPmrLk9QHXn5OHYmQoqa-101" value="&lt;span style=&quot;background-color: transparent; color: light-dark(rgb(0, 0, 0), rgb(255, 255, 255));&quot;&gt;.2&lt;/span&gt;" style="rounded=1;whiteSpace=wrap;html=1;align=left;" vertex="1" parent="1">
          <mxGeometry x="2360" y="310" width="40" height="40" as="geometry" />
        </mxCell>
        <mxCell id="yPmrLk9QHXn5OHYmQoqa-144" style="edgeStyle=orthogonalEdgeStyle;rounded=0;orthogonalLoop=1;jettySize=auto;html=1;exitX=0.25;exitY=1;exitDx=0;exitDy=0;entryX=0.5;entryY=1;entryDx=0;entryDy=0;" edge="1" parent="1" source="yPmrLk9QHXn5OHYmQoqa-102" target="yPmrLk9QHXn5OHYmQoqa-142">
          <mxGeometry relative="1" as="geometry" />
        </mxCell>
        <mxCell id="yPmrLk9QHXn5OHYmQoqa-102" value="下一个指令是&lt;font style=&quot;color: rgb(255, 51, 51);&quot;&gt;赋值&lt;/font&gt;指令" style="rounded=1;whiteSpace=wrap;html=1;" vertex="1" parent="1">
          <mxGeometry x="2240" y="360" width="160" height="80" as="geometry" />
        </mxCell>
        <mxCell id="yPmrLk9QHXn5OHYmQoqa-103" style="edgeStyle=orthogonalEdgeStyle;rounded=0;orthogonalLoop=1;jettySize=auto;html=1;exitX=0.5;exitY=1;exitDx=0;exitDy=0;entryX=0.5;entryY=0;entryDx=0;entryDy=0;" edge="1" parent="1" source="yPmrLk9QHXn5OHYmQoqa-104" target="yPmrLk9QHXn5OHYmQoqa-108">
          <mxGeometry relative="1" as="geometry">
            <mxPoint x="2540" y="80" as="targetPoint" />
          </mxGeometry>
        </mxCell>
        <mxCell id="yPmrLk9QHXn5OHYmQoqa-104" value="Decl" style="ellipse;whiteSpace=wrap;html=1;aspect=fixed;" vertex="1" parent="1">
          <mxGeometry x="2520" width="40" height="40" as="geometry" />
        </mxCell>
        <mxCell id="yPmrLk9QHXn5OHYmQoqa-105" style="edgeStyle=orthogonalEdgeStyle;rounded=0;orthogonalLoop=1;jettySize=auto;html=1;exitX=0.5;exitY=1;exitDx=0;exitDy=0;entryX=0.5;entryY=0;entryDx=0;entryDy=0;" edge="1" parent="1" source="yPmrLk9QHXn5OHYmQoqa-108">
          <mxGeometry relative="1" as="geometry">
            <mxPoint x="2540" y="160" as="targetPoint" />
          </mxGeometry>
        </mxCell>
        <mxCell id="yPmrLk9QHXn5OHYmQoqa-106" style="rounded=0;orthogonalLoop=1;jettySize=auto;html=1;exitX=0;exitY=1;exitDx=0;exitDy=0;entryX=0.5;entryY=0;entryDx=0;entryDy=0;" edge="1" parent="1" source="yPmrLk9QHXn5OHYmQoqa-108" target="yPmrLk9QHXn5OHYmQoqa-110">
          <mxGeometry relative="1" as="geometry" />
        </mxCell>
        <mxCell id="yPmrLk9QHXn5OHYmQoqa-107" style="rounded=0;orthogonalLoop=1;jettySize=auto;html=1;exitX=1;exitY=1;exitDx=0;exitDy=0;entryX=0.5;entryY=0;entryDx=0;entryDy=0;" edge="1" parent="1" source="yPmrLk9QHXn5OHYmQoqa-108" target="yPmrLk9QHXn5OHYmQoqa-115">
          <mxGeometry relative="1" as="geometry" />
        </mxCell>
        <mxCell id="yPmrLk9QHXn5OHYmQoqa-108" value="Var&lt;div&gt;Decl&lt;/div&gt;" style="ellipse;whiteSpace=wrap;html=1;" vertex="1" parent="1">
          <mxGeometry x="2520" y="80" width="40" height="40" as="geometry" />
        </mxCell>
        <mxCell id="yPmrLk9QHXn5OHYmQoqa-109" style="rounded=0;orthogonalLoop=1;jettySize=auto;html=1;exitX=0.5;exitY=1;exitDx=0;exitDy=0;entryX=0.5;entryY=0;entryDx=0;entryDy=0;" edge="1" parent="1" source="yPmrLk9QHXn5OHYmQoqa-110">
          <mxGeometry relative="1" as="geometry">
            <mxPoint x="2460" y="239.99999999999977" as="targetPoint" />
          </mxGeometry>
        </mxCell>
        <mxCell id="yPmrLk9QHXn5OHYmQoqa-110" value="BType" style="ellipse;whiteSpace=wrap;html=1;" vertex="1" parent="1">
          <mxGeometry x="2480" y="160" width="40" height="40" as="geometry" />
        </mxCell>
        <mxCell id="yPmrLk9QHXn5OHYmQoqa-111" style="rounded=0;orthogonalLoop=1;jettySize=auto;html=1;exitX=0;exitY=1;exitDx=0;exitDy=0;entryX=0.5;entryY=0;entryDx=0;entryDy=0;" edge="1" parent="1" source="yPmrLk9QHXn5OHYmQoqa-114" target="yPmrLk9QHXn5OHYmQoqa-117">
          <mxGeometry relative="1" as="geometry" />
        </mxCell>
        <mxCell id="yPmrLk9QHXn5OHYmQoqa-112" style="edgeStyle=orthogonalEdgeStyle;rounded=0;orthogonalLoop=1;jettySize=auto;html=1;exitX=0.5;exitY=1;exitDx=0;exitDy=0;entryX=0.5;entryY=0;entryDx=0;entryDy=0;" edge="1" parent="1" source="yPmrLk9QHXn5OHYmQoqa-114" target="yPmrLk9QHXn5OHYmQoqa-118">
          <mxGeometry relative="1" as="geometry" />
        </mxCell>
        <mxCell id="yPmrLk9QHXn5OHYmQoqa-113" style="rounded=0;orthogonalLoop=1;jettySize=auto;html=1;exitX=1;exitY=1;exitDx=0;exitDy=0;" edge="1" parent="1" source="yPmrLk9QHXn5OHYmQoqa-114" target="yPmrLk9QHXn5OHYmQoqa-120">
          <mxGeometry relative="1" as="geometry" />
        </mxCell>
        <mxCell id="yPmrLk9QHXn5OHYmQoqa-114" value="Var&lt;br&gt;Def" style="ellipse;whiteSpace=wrap;html=1;" vertex="1" parent="1">
          <mxGeometry x="2520" y="160" width="40" height="40" as="geometry" />
        </mxCell>
        <mxCell id="yPmrLk9QHXn5OHYmQoqa-115" value="Term&lt;div&gt;;&lt;/div&gt;" style="ellipse;whiteSpace=wrap;html=1;" vertex="1" parent="1">
          <mxGeometry x="2560" y="160" width="40" height="40" as="geometry" />
        </mxCell>
        <mxCell id="yPmrLk9QHXn5OHYmQoqa-116" value="Term&lt;div&gt;float&lt;/div&gt;" style="ellipse;whiteSpace=wrap;html=1;" vertex="1" parent="1">
          <mxGeometry x="2440" y="240" width="40" height="40" as="geometry" />
        </mxCell>
        <mxCell id="yPmrLk9QHXn5OHYmQoqa-117" value="Term&lt;div&gt;a&lt;/div&gt;" style="ellipse;whiteSpace=wrap;html=1;" vertex="1" parent="1">
          <mxGeometry x="2480" y="240" width="40" height="40" as="geometry" />
        </mxCell>
        <mxCell id="yPmrLk9QHXn5OHYmQoqa-118" value="Term&lt;div&gt;=&lt;/div&gt;" style="ellipse;whiteSpace=wrap;html=1;" vertex="1" parent="1">
          <mxGeometry x="2520" y="240" width="40" height="40" as="geometry" />
        </mxCell>
        <mxCell id="yPmrLk9QHXn5OHYmQoqa-119" style="edgeStyle=orthogonalEdgeStyle;rounded=0;orthogonalLoop=1;jettySize=auto;html=1;exitX=0.5;exitY=1;exitDx=0;exitDy=0;entryX=0.5;entryY=0;entryDx=0;entryDy=0;" edge="1" parent="1" source="yPmrLk9QHXn5OHYmQoqa-120" target="yPmrLk9QHXn5OHYmQoqa-121">
          <mxGeometry relative="1" as="geometry" />
        </mxCell>
        <mxCell id="yPmrLk9QHXn5OHYmQoqa-120" value="Init&lt;div&gt;Val&lt;/div&gt;" style="ellipse;whiteSpace=wrap;html=1;fillColor=#f8cecc;strokeColor=#b85450;" vertex="1" parent="1">
          <mxGeometry x="2560" y="240" width="40" height="40" as="geometry" />
        </mxCell>
        <mxCell id="yPmrLk9QHXn5OHYmQoqa-121" value="&lt;span style=&quot;background-color: transparent; color: light-dark(rgb(0, 0, 0), rgb(255, 255, 255));&quot;&gt;.2&lt;/span&gt;" style="rounded=1;whiteSpace=wrap;html=1;align=left;" vertex="1" parent="1">
          <mxGeometry x="2560" y="310" width="40" height="40" as="geometry" />
        </mxCell>
        <mxCell id="yPmrLk9QHXn5OHYmQoqa-145" style="edgeStyle=orthogonalEdgeStyle;rounded=0;orthogonalLoop=1;jettySize=auto;html=1;exitX=0.5;exitY=1;exitDx=0;exitDy=0;entryX=0.5;entryY=1;entryDx=0;entryDy=0;" edge="1" parent="1" source="yPmrLk9QHXn5OHYmQoqa-122" target="yPmrLk9QHXn5OHYmQoqa-142">
          <mxGeometry relative="1" as="geometry" />
        </mxCell>
        <mxCell id="yPmrLk9QHXn5OHYmQoqa-122" value="下一个指令的一个操作数是&lt;font style=&quot;color: rgb(255, 51, 51);&quot;&gt;0.2的浮点数&lt;/font&gt;" style="rounded=1;whiteSpace=wrap;html=1;" vertex="1" parent="1">
          <mxGeometry x="2440" y="360" width="160" height="80" as="geometry" />
        </mxCell>
        <mxCell id="yPmrLk9QHXn5OHYmQoqa-123" style="edgeStyle=orthogonalEdgeStyle;rounded=0;orthogonalLoop=1;jettySize=auto;html=1;exitX=0.5;exitY=1;exitDx=0;exitDy=0;entryX=0.5;entryY=0;entryDx=0;entryDy=0;" edge="1" parent="1" source="yPmrLk9QHXn5OHYmQoqa-124" target="yPmrLk9QHXn5OHYmQoqa-128">
          <mxGeometry relative="1" as="geometry">
            <mxPoint x="2740" y="80" as="targetPoint" />
          </mxGeometry>
        </mxCell>
        <mxCell id="yPmrLk9QHXn5OHYmQoqa-124" value="Decl" style="ellipse;whiteSpace=wrap;html=1;aspect=fixed;" vertex="1" parent="1">
          <mxGeometry x="2720" width="40" height="40" as="geometry" />
        </mxCell>
        <mxCell id="yPmrLk9QHXn5OHYmQoqa-125" style="edgeStyle=orthogonalEdgeStyle;rounded=0;orthogonalLoop=1;jettySize=auto;html=1;exitX=0.5;exitY=1;exitDx=0;exitDy=0;entryX=0.5;entryY=0;entryDx=0;entryDy=0;" edge="1" parent="1" source="yPmrLk9QHXn5OHYmQoqa-128">
          <mxGeometry relative="1" as="geometry">
            <mxPoint x="2740" y="160" as="targetPoint" />
          </mxGeometry>
        </mxCell>
        <mxCell id="yPmrLk9QHXn5OHYmQoqa-126" style="rounded=0;orthogonalLoop=1;jettySize=auto;html=1;exitX=0;exitY=1;exitDx=0;exitDy=0;entryX=0.5;entryY=0;entryDx=0;entryDy=0;" edge="1" parent="1" source="yPmrLk9QHXn5OHYmQoqa-128" target="yPmrLk9QHXn5OHYmQoqa-130">
          <mxGeometry relative="1" as="geometry" />
        </mxCell>
        <mxCell id="yPmrLk9QHXn5OHYmQoqa-127" style="rounded=0;orthogonalLoop=1;jettySize=auto;html=1;exitX=1;exitY=1;exitDx=0;exitDy=0;entryX=0.5;entryY=0;entryDx=0;entryDy=0;" edge="1" parent="1" source="yPmrLk9QHXn5OHYmQoqa-128" target="yPmrLk9QHXn5OHYmQoqa-135">
          <mxGeometry relative="1" as="geometry" />
        </mxCell>
        <mxCell id="yPmrLk9QHXn5OHYmQoqa-128" value="Var&lt;div&gt;Decl&lt;/div&gt;" style="ellipse;whiteSpace=wrap;html=1;" vertex="1" parent="1">
          <mxGeometry x="2720" y="80" width="40" height="40" as="geometry" />
        </mxCell>
        <mxCell id="yPmrLk9QHXn5OHYmQoqa-129" style="rounded=0;orthogonalLoop=1;jettySize=auto;html=1;exitX=0.5;exitY=1;exitDx=0;exitDy=0;entryX=0.5;entryY=0;entryDx=0;entryDy=0;" edge="1" parent="1" source="yPmrLk9QHXn5OHYmQoqa-130">
          <mxGeometry relative="1" as="geometry">
            <mxPoint x="2660" y="239.99999999999977" as="targetPoint" />
          </mxGeometry>
        </mxCell>
        <mxCell id="yPmrLk9QHXn5OHYmQoqa-130" value="BType" style="ellipse;whiteSpace=wrap;html=1;" vertex="1" parent="1">
          <mxGeometry x="2680" y="160" width="40" height="40" as="geometry" />
        </mxCell>
        <mxCell id="yPmrLk9QHXn5OHYmQoqa-131" style="rounded=0;orthogonalLoop=1;jettySize=auto;html=1;exitX=0;exitY=1;exitDx=0;exitDy=0;entryX=0.5;entryY=0;entryDx=0;entryDy=0;" edge="1" parent="1" source="yPmrLk9QHXn5OHYmQoqa-134" target="yPmrLk9QHXn5OHYmQoqa-137">
          <mxGeometry relative="1" as="geometry" />
        </mxCell>
        <mxCell id="yPmrLk9QHXn5OHYmQoqa-132" style="edgeStyle=orthogonalEdgeStyle;rounded=0;orthogonalLoop=1;jettySize=auto;html=1;exitX=0.5;exitY=1;exitDx=0;exitDy=0;entryX=0.5;entryY=0;entryDx=0;entryDy=0;" edge="1" parent="1" source="yPmrLk9QHXn5OHYmQoqa-134" target="yPmrLk9QHXn5OHYmQoqa-138">
          <mxGeometry relative="1" as="geometry" />
        </mxCell>
        <mxCell id="yPmrLk9QHXn5OHYmQoqa-133" style="rounded=0;orthogonalLoop=1;jettySize=auto;html=1;exitX=1;exitY=1;exitDx=0;exitDy=0;" edge="1" parent="1" source="yPmrLk9QHXn5OHYmQoqa-134" target="yPmrLk9QHXn5OHYmQoqa-140">
          <mxGeometry relative="1" as="geometry" />
        </mxCell>
        <mxCell id="yPmrLk9QHXn5OHYmQoqa-134" value="Var&lt;br&gt;Def" style="ellipse;whiteSpace=wrap;html=1;fillColor=#f8cecc;strokeColor=#b85450;" vertex="1" parent="1">
          <mxGeometry x="2720" y="160" width="40" height="40" as="geometry" />
        </mxCell>
        <mxCell id="yPmrLk9QHXn5OHYmQoqa-135" value="Term&lt;div&gt;;&lt;/div&gt;" style="ellipse;whiteSpace=wrap;html=1;" vertex="1" parent="1">
          <mxGeometry x="2760" y="160" width="40" height="40" as="geometry" />
        </mxCell>
        <mxCell id="yPmrLk9QHXn5OHYmQoqa-136" value="Term&lt;div&gt;float&lt;/div&gt;" style="ellipse;whiteSpace=wrap;html=1;" vertex="1" parent="1">
          <mxGeometry x="2640" y="240" width="40" height="40" as="geometry" />
        </mxCell>
        <mxCell id="yPmrLk9QHXn5OHYmQoqa-137" value="Term&lt;div&gt;a&lt;/div&gt;" style="ellipse;whiteSpace=wrap;html=1;" vertex="1" parent="1">
          <mxGeometry x="2680" y="240" width="40" height="40" as="geometry" />
        </mxCell>
        <mxCell id="yPmrLk9QHXn5OHYmQoqa-138" value="Term&lt;div&gt;=&lt;/div&gt;" style="ellipse;whiteSpace=wrap;html=1;" vertex="1" parent="1">
          <mxGeometry x="2720" y="240" width="40" height="40" as="geometry" />
        </mxCell>
        <mxCell id="yPmrLk9QHXn5OHYmQoqa-139" style="edgeStyle=orthogonalEdgeStyle;rounded=0;orthogonalLoop=1;jettySize=auto;html=1;exitX=0.5;exitY=1;exitDx=0;exitDy=0;entryX=0.5;entryY=0;entryDx=0;entryDy=0;" edge="1" parent="1" source="yPmrLk9QHXn5OHYmQoqa-140" target="yPmrLk9QHXn5OHYmQoqa-141">
          <mxGeometry relative="1" as="geometry" />
        </mxCell>
        <mxCell id="yPmrLk9QHXn5OHYmQoqa-140" value="Init&lt;div&gt;Val&lt;/div&gt;" style="ellipse;whiteSpace=wrap;html=1;" vertex="1" parent="1">
          <mxGeometry x="2760" y="240" width="40" height="40" as="geometry" />
        </mxCell>
        <mxCell id="yPmrLk9QHXn5OHYmQoqa-141" value="&lt;span style=&quot;background-color: transparent; color: light-dark(rgb(0, 0, 0), rgb(255, 255, 255));&quot;&gt;.2&lt;/span&gt;" style="rounded=1;whiteSpace=wrap;html=1;align=left;" vertex="1" parent="1">
          <mxGeometry x="2760" y="310" width="40" height="40" as="geometry" />
        </mxCell>
        <mxCell id="yPmrLk9QHXn5OHYmQoqa-185" style="edgeStyle=orthogonalEdgeStyle;rounded=0;orthogonalLoop=1;jettySize=auto;html=1;exitX=0.75;exitY=1;exitDx=0;exitDy=0;entryX=0.5;entryY=1;entryDx=0;entryDy=0;" edge="1" parent="1" source="yPmrLk9QHXn5OHYmQoqa-142" target="yPmrLk9QHXn5OHYmQoqa-184">
          <mxGeometry relative="1" as="geometry">
            <Array as="points">
              <mxPoint x="2760" y="520" />
              <mxPoint x="2920" y="520" />
            </Array>
          </mxGeometry>
        </mxCell>
        <mxCell id="yPmrLk9QHXn5OHYmQoqa-142" value="下一个指令是定义一个变量。&lt;div&gt;结合之前的分析，推理出下一条指令：&lt;/div&gt;&lt;div&gt;&lt;font style=&quot;color: rgb(255, 51, 51);&quot;&gt;1.定义一个名为a的变量&lt;/font&gt;&lt;/div&gt;&lt;div&gt;&lt;font style=&quot;color: rgb(255, 51, 51);&quot;&gt;2.并且将a初始值设为0.2.&lt;/font&gt;&lt;/div&gt;" style="rounded=1;whiteSpace=wrap;html=1;align=left;" vertex="1" parent="1">
          <mxGeometry x="2640" y="360" width="160" height="80" as="geometry" />
        </mxCell>
        <mxCell id="yPmrLk9QHXn5OHYmQoqa-165" style="edgeStyle=orthogonalEdgeStyle;rounded=0;orthogonalLoop=1;jettySize=auto;html=1;exitX=0.5;exitY=1;exitDx=0;exitDy=0;entryX=0.5;entryY=0;entryDx=0;entryDy=0;" edge="1" parent="1" source="yPmrLk9QHXn5OHYmQoqa-166" target="yPmrLk9QHXn5OHYmQoqa-170">
          <mxGeometry relative="1" as="geometry">
            <mxPoint x="2940" y="80" as="targetPoint" />
          </mxGeometry>
        </mxCell>
        <mxCell id="yPmrLk9QHXn5OHYmQoqa-166" value="Decl" style="ellipse;whiteSpace=wrap;html=1;aspect=fixed;" vertex="1" parent="1">
          <mxGeometry x="2920" width="40" height="40" as="geometry" />
        </mxCell>
        <mxCell id="yPmrLk9QHXn5OHYmQoqa-167" style="edgeStyle=orthogonalEdgeStyle;rounded=0;orthogonalLoop=1;jettySize=auto;html=1;exitX=0.5;exitY=1;exitDx=0;exitDy=0;entryX=0.5;entryY=0;entryDx=0;entryDy=0;" edge="1" parent="1" source="yPmrLk9QHXn5OHYmQoqa-170">
          <mxGeometry relative="1" as="geometry">
            <mxPoint x="2940" y="160" as="targetPoint" />
          </mxGeometry>
        </mxCell>
        <mxCell id="yPmrLk9QHXn5OHYmQoqa-168" style="rounded=0;orthogonalLoop=1;jettySize=auto;html=1;exitX=0;exitY=1;exitDx=0;exitDy=0;entryX=0.5;entryY=0;entryDx=0;entryDy=0;" edge="1" parent="1" source="yPmrLk9QHXn5OHYmQoqa-170" target="yPmrLk9QHXn5OHYmQoqa-172">
          <mxGeometry relative="1" as="geometry" />
        </mxCell>
        <mxCell id="yPmrLk9QHXn5OHYmQoqa-169" style="rounded=0;orthogonalLoop=1;jettySize=auto;html=1;exitX=1;exitY=1;exitDx=0;exitDy=0;entryX=0.5;entryY=0;entryDx=0;entryDy=0;" edge="1" parent="1" source="yPmrLk9QHXn5OHYmQoqa-170" target="yPmrLk9QHXn5OHYmQoqa-177">
          <mxGeometry relative="1" as="geometry" />
        </mxCell>
        <mxCell id="yPmrLk9QHXn5OHYmQoqa-170" value="Var&lt;div&gt;Decl&lt;/div&gt;" style="ellipse;whiteSpace=wrap;html=1;fillColor=#f8cecc;strokeColor=#b85450;" vertex="1" parent="1">
          <mxGeometry x="2920" y="80" width="40" height="40" as="geometry" />
        </mxCell>
        <mxCell id="yPmrLk9QHXn5OHYmQoqa-171" style="rounded=0;orthogonalLoop=1;jettySize=auto;html=1;exitX=0.5;exitY=1;exitDx=0;exitDy=0;entryX=0.5;entryY=0;entryDx=0;entryDy=0;" edge="1" parent="1" source="yPmrLk9QHXn5OHYmQoqa-172">
          <mxGeometry relative="1" as="geometry">
            <mxPoint x="2860" y="239.99999999999977" as="targetPoint" />
          </mxGeometry>
        </mxCell>
        <mxCell id="yPmrLk9QHXn5OHYmQoqa-172" value="BType" style="ellipse;whiteSpace=wrap;html=1;" vertex="1" parent="1">
          <mxGeometry x="2880" y="160" width="40" height="40" as="geometry" />
        </mxCell>
        <mxCell id="yPmrLk9QHXn5OHYmQoqa-173" style="rounded=0;orthogonalLoop=1;jettySize=auto;html=1;exitX=0;exitY=1;exitDx=0;exitDy=0;entryX=0.5;entryY=0;entryDx=0;entryDy=0;" edge="1" parent="1" source="yPmrLk9QHXn5OHYmQoqa-176" target="yPmrLk9QHXn5OHYmQoqa-179">
          <mxGeometry relative="1" as="geometry" />
        </mxCell>
        <mxCell id="yPmrLk9QHXn5OHYmQoqa-174" style="edgeStyle=orthogonalEdgeStyle;rounded=0;orthogonalLoop=1;jettySize=auto;html=1;exitX=0.5;exitY=1;exitDx=0;exitDy=0;entryX=0.5;entryY=0;entryDx=0;entryDy=0;" edge="1" parent="1" source="yPmrLk9QHXn5OHYmQoqa-176" target="yPmrLk9QHXn5OHYmQoqa-180">
          <mxGeometry relative="1" as="geometry" />
        </mxCell>
        <mxCell id="yPmrLk9QHXn5OHYmQoqa-175" style="rounded=0;orthogonalLoop=1;jettySize=auto;html=1;exitX=1;exitY=1;exitDx=0;exitDy=0;" edge="1" parent="1" source="yPmrLk9QHXn5OHYmQoqa-176" target="yPmrLk9QHXn5OHYmQoqa-182">
          <mxGeometry relative="1" as="geometry" />
        </mxCell>
        <mxCell id="yPmrLk9QHXn5OHYmQoqa-176" value="Var&lt;br&gt;Def" style="ellipse;whiteSpace=wrap;html=1;" vertex="1" parent="1">
          <mxGeometry x="2920" y="160" width="40" height="40" as="geometry" />
        </mxCell>
        <mxCell id="yPmrLk9QHXn5OHYmQoqa-177" value="Term&lt;div&gt;;&lt;/div&gt;" style="ellipse;whiteSpace=wrap;html=1;" vertex="1" parent="1">
          <mxGeometry x="2960" y="160" width="40" height="40" as="geometry" />
        </mxCell>
        <mxCell id="yPmrLk9QHXn5OHYmQoqa-178" value="Term&lt;div&gt;float&lt;/div&gt;" style="ellipse;whiteSpace=wrap;html=1;" vertex="1" parent="1">
          <mxGeometry x="2840" y="240" width="40" height="40" as="geometry" />
        </mxCell>
        <mxCell id="yPmrLk9QHXn5OHYmQoqa-179" value="Term&lt;div&gt;a&lt;/div&gt;" style="ellipse;whiteSpace=wrap;html=1;" vertex="1" parent="1">
          <mxGeometry x="2880" y="240" width="40" height="40" as="geometry" />
        </mxCell>
        <mxCell id="yPmrLk9QHXn5OHYmQoqa-180" value="Term&lt;div&gt;=&lt;/div&gt;" style="ellipse;whiteSpace=wrap;html=1;" vertex="1" parent="1">
          <mxGeometry x="2920" y="240" width="40" height="40" as="geometry" />
        </mxCell>
        <mxCell id="yPmrLk9QHXn5OHYmQoqa-181" style="edgeStyle=orthogonalEdgeStyle;rounded=0;orthogonalLoop=1;jettySize=auto;html=1;exitX=0.5;exitY=1;exitDx=0;exitDy=0;entryX=0.5;entryY=0;entryDx=0;entryDy=0;" edge="1" parent="1" source="yPmrLk9QHXn5OHYmQoqa-182" target="yPmrLk9QHXn5OHYmQoqa-183">
          <mxGeometry relative="1" as="geometry" />
        </mxCell>
        <mxCell id="yPmrLk9QHXn5OHYmQoqa-182" value="Init&lt;div&gt;Val&lt;/div&gt;" style="ellipse;whiteSpace=wrap;html=1;" vertex="1" parent="1">
          <mxGeometry x="2960" y="240" width="40" height="40" as="geometry" />
        </mxCell>
        <mxCell id="yPmrLk9QHXn5OHYmQoqa-183" value="&lt;span style=&quot;background-color: transparent; color: light-dark(rgb(0, 0, 0), rgb(255, 255, 255));&quot;&gt;.2&lt;/span&gt;" style="rounded=1;whiteSpace=wrap;html=1;align=left;" vertex="1" parent="1">
          <mxGeometry x="2960" y="310" width="40" height="40" as="geometry" />
        </mxCell>
        <mxCell id="yPmrLk9QHXn5OHYmQoqa-184" value="&lt;span style=&quot;text-align: left;&quot;&gt;下一个指令是定义一个变量。&lt;/span&gt;&lt;div style=&quot;text-align: left;&quot;&gt;结合之前的分析，推理出下一条指令：&lt;/div&gt;&lt;div style=&quot;text-align: left;&quot;&gt;&lt;font style=&quot;color: rgb(255, 51, 51);&quot;&gt;1.定义一个名为a的变量&lt;/font&gt;&lt;/div&gt;&lt;div style=&quot;text-align: left;&quot;&gt;&lt;font style=&quot;color: rgb(255, 51, 51);&quot;&gt;2.并且将a初始值设为0.2.&lt;/font&gt;&lt;/div&gt;&lt;div style=&quot;text-align: left;&quot;&gt;&lt;font style=&quot;color: rgb(255, 51, 51);&quot;&gt;3.a变量的类型为float&lt;/font&gt;&lt;/div&gt;&lt;div style=&quot;text-align: left;&quot;&gt;&lt;font color=&quot;#ff3333&quot;&gt;那么这条指令就是 fdef a,0.2&lt;/font&gt;&lt;/div&gt;" style="rounded=1;whiteSpace=wrap;html=1;" vertex="1" parent="1">
          <mxGeometry x="2840" y="360" width="160" height="120" as="geometry" />
        </mxCell>
      </root>
    </mxGraphModel>
  </diagram>
</mxfile>
